<?xml version="1.0" standalone="no"?>
<!DOCTYPE svg PUBLIC "-//W3C//DTD SVG 20010904//EN"
 "http://www.w3.org/TR/2001/REC-SVG-20010904/DTD/svg10.dtd">
<svg version="1.0" xmlns="http://www.w3.org/2000/svg"
 width="1000.000000pt" height="500.000000pt" viewBox="0 0 1000.000000 500.000000"
 preserveAspectRatio="xMidYMid meet">

<g transform="translate(0.000000,500.000000) scale(0.100000,-0.100000)"
fill="#000000" stroke="none">
<path d="M0 2500 l0 -2500 5000 0 5000 0 0 2500 0 2500 -5000 0 -5000 0 0
-2500z m3360 657 c0 -2 -11 -35 -24 -73 -136 -402 -458 -724 -860 -860 -38
-13 -71 -24 -73 -24 -2 0 -3 216 -3 480 l0 480 480 0 c264 0 480 -1 480 -3z
m250 -602 l0 -605 -607 0 c-333 0 -604 3 -601 6 3 3 49 14 101 25 474 96 865
436 1025 889 25 73 38 122 68 268 2 12 7 22 9 22 3 0 5 -272 5 -605z m412 508
c32 -32 58 -63 58 -70 0 -10 -29 -13 -120 -13 -88 0 -120 3 -120 12 0 12 109
128 119 128 3 0 31 -26 63 -57z m506 -205 l2 -197 36 24 c43 29 106 40 192 32
122 -12 199 -75 222 -181 7 -32 10 -145 8 -301 l-3 -250 -90 0 -90 0 -5 263
-5 264 -28 24 c-63 54 -146 10 -210 -110 -20 -37 -22 -60 -27 -241 l-5 -200
-90 0 -90 0 -3 524 c-2 387 1 527 9 538 9 10 33 13 93 11 l81 -3 3 -197z
m2710 -1 l2 -197 42 27 c38 26 49 28 142 28 93 0 105 -2 155 -30 60 -33 95
-78 111 -145 7 -28 10 -139 8 -300 l-3 -255 -90 0 -90 0 -5 263 -5 264 -29 25
c-62 53 -147 8 -206 -111 l-30 -59 0 -194 0 -193 -90 0 c-65 0 -90 3 -90 13
-1 15 -1 1050 0 1059 0 3 39 6 88 5 l87 -2 3 -198z m-3188 -32 l0 -115 100 0
100 0 0 -85 0 -85 -100 0 -100 0 0 -173 c0 -213 3 -221 90 -215 35 2 76 14
108 31 28 15 54 27 57 27 3 0 5 -40 5 -90 0 -105 -3 -108 -109 -136 -137 -35
-263 14 -312 121 -16 35 -19 67 -19 238 l0 197 -55 0 -55 0 0 85 0 85 55 0 55
0 0 115 0 115 90 0 90 0 0 -115z m1540 -206 l0 -100 -53 6 c-76 10 -126 -7
-181 -60 -78 -75 -87 -106 -85 -307 l1 -173 -91 -3 -91 -3 0 366 0 365 91 0
91 0 -4 -55 -5 -54 36 31 c60 53 151 84 249 87 l42 1 0 -101z m494 71 c61 -31
115 -86 142 -145 22 -48 44 -151 44 -207 l0 -28 -236 0 -237 0 6 -41 c10 -74
72 -119 162 -119 68 0 99 25 110 88 l7 42 100 0 100 0 -7 -36 c-10 -58 -53
-146 -88 -182 -120 -125 -370 -115 -491 19 -21 23 -50 67 -65 98 -23 50 -26
68 -26 166 0 94 3 117 23 160 51 111 110 168 208 199 69 22 188 15 248 -14z
m727 0 c82 -41 124 -98 136 -185 l6 -45 -92 0 -91 0 -7 30 c-8 43 -38 60 -103
60 -65 0 -100 -20 -100 -56 0 -30 25 -42 160 -74 155 -37 216 -79 239 -167 28
-103 -44 -221 -159 -258 -158 -51 -346 -9 -407 90 -29 48 -41 87 -42 133 l-1
42 89 0 88 0 9 -42 c7 -35 16 -46 44 -60 73 -37 190 -14 190 37 0 34 -28 49
-145 78 -55 14 -113 30 -129 36 -77 30 -126 99 -126 180 0 103 55 174 163 213
72 26 215 19 278 -12z m1102 -521 c107 -55 47 -214 -69 -185 -41 11 -74 53
-74 95 1 74 79 123 143 90z"/>
<path d="M5859 2527 c-65 -44 -53 -52 81 -52 66 0 120 3 120 7 0 3 -14 20 -31
37 -26 27 -38 31 -83 31 -39 0 -62 -6 -87 -23z"/>
</g>
</svg>
